<?xml version="1.0" encoding="UTF-8"?>
<svg xmlns="http://www.w3.org/2000/svg" width="161.235" height="151.821" viewBox="0 0 161.235 151.821">
  <g id="Layer_2" data-name="Layer 2">
    <rect x="3.759" y="3.764" width="153.928" height="131.404" fill="#020202" stroke="#231f20" stroke-miterlimit="10"/>
    <g id="Strategy_Text_Outlines" data-name="Strategy Text Outlines">
      <path d="M2.863,148.153c0,.159.013.305.039.436.025.131.073.241.144.33.07.09.164.16.283.211.118.052.266.077.445.077.21,0,.4-.068.57-.206.169-.138.254-.35.254-.637,0-.153-.021-.286-.062-.397-.042-.112-.11-.213-.206-.302-.096-.09-.222-.171-.378-.244-.157-.074-.35-.148-.58-.226-.307-.102-.572-.214-.795-.335-.224-.121-.411-.264-.561-.427-.15-.162-.26-.351-.331-.564s-.105-.462-.105-.742c0-.677.188-1.182.565-1.514.376-.332.894-.498,1.552-.498.306,0,.589.033.848.101.258.067.482.176.67.325.188.15.335.342.44.575s.158.513.158.838v.191h-1.322c0-.325-.058-.576-.172-.752-.115-.175-.307-.263-.575-.263-.153,0-.281.022-.383.066-.102.045-.184.104-.244.178s-.102.158-.125.254-.034.194-.034.297c0,.21.045.388.134.531s.281.276.575.397l1.063.46c.262.114.476.234.642.359.166.124.299.258.397.401.099.145.168.302.206.475.039.172.058.364.058.574,0,.722-.209,1.247-.627,1.576-.418.329-1.001.493-1.748.493-.779,0-1.336-.169-1.671-.508-.335-.338-.502-.823-.502-1.456v-.277h1.379v.201Z" fill="#fff"/>
      <path d="M8.294,143.46v1.475h.766v.9h-.766v2.787c0,.205.03.35.091.437.061.086.187.129.378.129.051,0,.102,0,.153-.005.051-.003.099-.008.144-.015v.92c-.147,0-.289.005-.426.015s-.283.014-.436.014c-.256,0-.465-.018-.627-.053-.163-.034-.288-.104-.374-.21-.086-.105-.146-.244-.177-.417-.032-.172-.048-.39-.048-.651v-2.95h-.67v-.9h.67v-1.475h1.322Z" fill="#fff"/>
      <path d="M10.784,144.935v.69h.019c.134-.249.297-.449.488-.599.191-.15.425-.226.699-.226.039,0,.078.002.12.005s.082.008.12.015v1.264c-.07-.006-.139-.011-.206-.014-.067-.004-.136-.005-.206-.005-.115,0-.23.016-.345.048-.115.032-.22.085-.316.158-.096.073-.173.169-.23.287-.058.118-.086.264-.086.436v3.094h-1.322v-5.153h1.265Z" fill="#fff"/>
      <path d="M12.7,146.391c0-.3.048-.551.144-.752s.225-.363.388-.488c.163-.124.354-.214.575-.269.22-.054.455-.081.704-.081.396,0,.715.038.958.115.242.076.431.186.565.325.134.141.225.309.273.503.048.195.072.407.072.637v2.711c0,.243.011.431.034.565.022.134.065.277.129.431h-1.264c-.044-.083-.078-.171-.101-.264-.022-.092-.043-.184-.062-.272h-.019c-.153.268-.331.442-.532.521-.201.08-.461.12-.781.12-.23,0-.425-.04-.584-.12-.16-.079-.288-.189-.383-.33s-.166-.299-.21-.475c-.045-.175-.067-.35-.067-.521,0-.242.025-.452.077-.627.051-.176.129-.326.235-.45.105-.125.239-.229.402-.312.163-.083.359-.156.589-.221l.747-.201c.198-.051.335-.121.412-.211.077-.089.115-.22.115-.393,0-.197-.046-.353-.139-.464-.092-.112-.25-.168-.474-.168-.204,0-.357.061-.459.182-.102.122-.153.284-.153.489v.144h-1.188v-.125ZM14.826,147.679c-.102.042-.195.072-.278.092-.268.057-.459.152-.574.287-.115.134-.173.315-.173.546,0,.198.039.367.115.508s.204.21.383.21c.089,0,.182-.014.278-.043.096-.028.184-.075.264-.139.08-.063.145-.146.196-.249.051-.102.077-.224.077-.364v-1.015c-.089.07-.186.126-.288.167Z" fill="#fff"/>
      <path d="M18.925,143.46v1.475h.766v.9h-.766v2.787c0,.205.03.35.091.437.061.086.187.129.378.129.051,0,.102,0,.153-.005.051-.003.099-.008.144-.015v.92c-.147,0-.289.005-.426.015s-.283.014-.436.014c-.256,0-.465-.018-.627-.053-.163-.034-.288-.104-.374-.21-.086-.105-.146-.244-.177-.417-.032-.172-.048-.39-.048-.651v-2.95h-.67v-.9h.67v-1.475h1.322Z" fill="#fff"/>
      <path d="M21.281,148.124c0,.153.011.302.034.445.022.145.059.271.11.384.051.111.118.201.201.268.083.067.185.101.307.101.223,0,.386-.079.488-.239.102-.159.172-.402.211-.728h1.188c-.025.6-.185,1.057-.479,1.369-.293.313-.756.47-1.389.47-.479,0-.853-.08-1.121-.239-.268-.16-.466-.37-.594-.633-.128-.262-.206-.555-.235-.881-.029-.325-.043-.651-.043-.977,0-.345.024-.677.072-.996s.144-.604.288-.853c.144-.249.35-.447.618-.594.268-.147.625-.221,1.073-.221.383,0,.697.062.943.187.246.125.439.301.58.527.14.227.236.501.287.823.051.323.077.682.077,1.078v.297h-2.615v.411ZM22.593,146.405c-.019-.15-.053-.277-.101-.383s-.115-.186-.201-.24c-.086-.054-.196-.081-.33-.081s-.245.03-.331.091c-.086.061-.155.141-.206.239-.051.1-.088.21-.11.331-.022.121-.034.242-.034.363v.201h1.351c-.006-.197-.02-.371-.039-.521Z" fill="#fff"/>
      <path d="M28.445,149.829c0,.664-.164,1.162-.493,1.494s-.879.498-1.652.498c-.562,0-.994-.119-1.297-.359-.304-.239-.455-.579-.455-1.02h1.264c0,.166.067.297.201.393.064.045.132.08.206.105.073.025.151.038.234.038.269,0,.457-.086.565-.259.108-.172.163-.386.163-.642v-.68h-.019c-.134.191-.299.345-.493.46-.195.114-.397.172-.608.172-.523,0-.918-.199-1.183-.599-.265-.398-.397-1.067-.397-2.007,0-.3.017-.606.052-.919s.109-.596.221-.848c.111-.252.274-.458.488-.618.214-.159.5-.239.857-.239.185,0,.376.052.574.153.198.103.361.287.489.556h.019v-.575h1.264v4.895ZM25.826,148.182c.016.16.048.302.096.427.048.124.115.224.201.297.086.073.199.11.34.11s.257-.037.35-.11c.092-.073.166-.174.22-.302s.092-.283.115-.465.034-.381.034-.599c0-.626-.049-1.069-.148-1.331s-.279-.393-.541-.393c-.147,0-.265.032-.354.096s-.16.167-.211.312c-.051.144-.084.335-.1.574-.016.239-.024.531-.024.876,0,.18.008.349.024.508Z" fill="#fff"/>
      <path d="M29.814,150.787c.243,0,.417-.063.522-.191.105-.128.167-.297.187-.508l-1.446-5.153h1.379l.766,3.563h.019l.67-3.563h1.322l-1.245,4.809c-.115.428-.225.774-.331,1.039-.105.265-.229.47-.374.613-.144.144-.316.237-.517.282s-.455.067-.761.067h-.537v-.986c.115.019.23.028.345.028Z" fill="#fff"/>
      <path d="M34.537,150.088h-1.264v-1.494h1.264v1.494Z" fill="#fff"/>
      <path d="M39.804,143.249c.479,0,.865.078,1.159.235.293.156.522.38.685.67.163.291.273.641.331,1.049.058.409.086.865.086,1.37,0,.6-.037,1.122-.11,1.565-.073.444-.2.81-.378,1.097s-.418.501-.718.642-.68.211-1.14.211h-2.174v-6.839h2.26ZM39.536,149.072c.243,0,.438-.041.584-.124.146-.083.263-.221.35-.412.086-.191.144-.443.172-.757.029-.312.043-.702.043-1.168,0-.39-.013-.731-.039-1.025-.025-.293-.078-.537-.158-.732-.08-.194-.198-.342-.354-.44-.157-.099-.366-.148-.627-.148h-.584v4.808h.613Z" fill="#fff"/>
      <path d="M44.066,148.124c0,.153.011.302.034.445.022.145.059.271.11.384.051.111.118.201.201.268.083.067.185.101.307.101.223,0,.386-.079.488-.239.102-.159.172-.402.211-.728h1.188c-.025.6-.185,1.057-.479,1.369-.293.313-.756.47-1.389.47-.479,0-.853-.08-1.121-.239-.268-.16-.466-.37-.594-.633-.128-.262-.206-.555-.235-.881-.029-.325-.043-.651-.043-.977,0-.345.024-.677.072-.996s.144-.604.288-.853c.144-.249.35-.447.618-.594.268-.147.625-.221,1.073-.221.383,0,.697.062.943.187.246.125.439.301.58.527.14.227.236.501.287.823.051.323.077.682.077,1.078v.297h-2.615v.411ZM45.378,146.405c-.019-.15-.053-.277-.101-.383s-.115-.186-.201-.24c-.086-.054-.196-.081-.33-.081s-.245.03-.331.091c-.086.061-.155.141-.206.239-.051.1-.088.21-.11.331-.022.121-.034.242-.034.363v.201h1.351c-.006-.197-.02-.371-.039-.521Z" fill="#fff"/>
      <path d="M48.338,148.574c0,.224.059.404.177.542.118.137.289.205.513.205.204,0,.367-.051.488-.153.121-.102.182-.255.182-.459,0-.166-.048-.292-.144-.379-.096-.086-.208-.154-.335-.206l-.929-.335c-.364-.128-.638-.308-.824-.541-.185-.233-.277-.531-.277-.896,0-.211.035-.41.105-.599s.182-.353.335-.493.35-.252.589-.335c.24-.083.528-.125.867-.125.601,0,1.044.128,1.332.383.287.256.431.617.431,1.083v.21h-1.188c0-.268-.043-.464-.129-.589-.086-.124-.238-.187-.455-.187-.166,0-.312.047-.436.139-.125.093-.187.231-.187.417,0,.128.04.242.12.345.08.103.231.188.455.259l.795.268c.415.141.708.324.881.551.173.228.259.535.259.925,0,.274-.048.513-.144.713-.096.201-.229.369-.397.503-.169.135-.371.23-.604.288-.233.057-.49.086-.771.086-.371,0-.679-.035-.924-.105s-.44-.176-.584-.316c-.144-.14-.245-.311-.302-.512-.058-.201-.086-.427-.086-.676v-.182h1.188v.172Z" fill="#fff"/>
      <path d="M52.993,143.173v1.13h-1.322v-1.13h1.322ZM52.993,144.935v5.153h-1.322v-5.153h1.322Z" fill="#fff"/>
      <path d="M57.782,149.829c0,.664-.164,1.162-.493,1.494s-.879.498-1.652.498c-.562,0-.994-.119-1.297-.359-.304-.239-.455-.579-.455-1.02h1.264c0,.166.067.297.201.393.064.045.132.08.206.105.073.025.151.038.234.038.269,0,.457-.086.565-.259.108-.172.163-.386.163-.642v-.68h-.019c-.134.191-.299.345-.493.46-.195.114-.397.172-.608.172-.523,0-.918-.199-1.183-.599-.265-.398-.397-1.067-.397-2.007,0-.3.017-.606.052-.919s.109-.596.221-.848c.111-.252.274-.458.488-.618.214-.159.5-.239.857-.239.185,0,.376.052.574.153.198.103.361.287.489.556h.019v-.575h1.264v4.895ZM55.163,148.182c.016.16.048.302.096.427.048.124.115.224.201.297.086.073.199.11.34.11s.257-.037.35-.11c.092-.073.166-.174.22-.302s.092-.283.115-.465.034-.381.034-.599c0-.626-.049-1.069-.148-1.331s-.279-.393-.541-.393c-.147,0-.265.032-.354.096s-.16.167-.211.312c-.051.144-.084.335-.1.574-.016.239-.024.531-.024.876,0,.18.008.349.024.508Z" fill="#fff"/>
      <path d="M59.975,144.935v.604h.019c.14-.255.322-.441.546-.56.223-.118.479-.178.766-.178.421,0,.746.115.972.345.227.23.34.604.34,1.121v3.821h-1.322v-3.554c0-.268-.044-.455-.134-.56-.089-.105-.233-.158-.431-.158-.466,0-.699.284-.699.853v3.419h-1.322v-5.153h1.265Z" fill="#fff"/>
      <path d="M64.84,150.088h-1.264v-1.494h1.264v1.494Z" fill="#fff"/>
      <path d="M71.43,144.38h-1.494v5.708h-1.379v-5.708h-1.494v-1.131h4.368v1.131Z" fill="#fff"/>
      <path d="M72.407,148.124c0,.153.011.302.034.445.022.145.059.271.11.384.051.111.118.201.201.268.083.067.185.101.307.101.223,0,.386-.079.488-.239.102-.159.172-.402.211-.728h1.188c-.025.6-.185,1.057-.479,1.369-.293.313-.756.47-1.389.47-.479,0-.853-.08-1.121-.239-.268-.16-.466-.37-.594-.633-.128-.262-.206-.555-.235-.881-.029-.325-.043-.651-.043-.977,0-.345.024-.677.072-.996s.144-.604.288-.853c.144-.249.35-.447.618-.594.268-.147.625-.221,1.073-.221.383,0,.697.062.943.187.246.125.439.301.58.527.14.227.236.501.287.823.051.323.077.682.077,1.078v.297h-2.615v.411ZM73.719,146.405c-.019-.15-.053-.277-.101-.383s-.115-.186-.201-.24c-.086-.054-.196-.081-.33-.081s-.245.03-.331.091c-.086.061-.155.141-.206.239-.051.1-.088.21-.11.331-.022.121-.034.242-.034.363v.201h1.351c-.006-.197-.02-.371-.039-.521Z" fill="#fff"/>
      <path d="M78.168,146.42c-.016-.121-.045-.231-.086-.331-.042-.099-.101-.179-.177-.239s-.179-.091-.306-.091c-.16,0-.291.037-.393.11s-.179.182-.229.325c-.051.144-.086.326-.105.546-.019.221-.029.48-.029.781,0,.319.01.592.029.818s.054.414.105.561c.051.146.123.254.215.32.092.067.212.101.359.101.224,0,.387-.096.489-.287s.153-.498.153-.919h1.264c0,.677-.152,1.192-.455,1.547-.303.354-.806.531-1.508.531-.332,0-.621-.04-.867-.12-.246-.079-.45-.224-.613-.431-.163-.207-.286-.485-.369-.833-.083-.349-.125-.781-.125-1.298,0-.53.051-.969.153-1.317.102-.348.246-.626.431-.833.185-.208.405-.353.661-.436s.536-.125.843-.125c.613,0,1.074.179,1.384.536.31.358.464.843.464,1.456h-1.264c0-.128-.008-.252-.024-.373Z" fill="#fff"/>
      <path d="M81.468,143.249v2.213h.019c.256-.44.674-.661,1.256-.661.422,0,.744.115.973.345.227.23.34.604.34,1.121v3.821h-1.322v-3.554c0-.268-.045-.455-.135-.56-.09-.105-.232-.158-.43-.158-.467,0-.7.284-.7.853v3.419h-1.322v-6.839h1.322Z" fill="#fff"/>
      <path d="M86.199,144.935v.604h.019c.141-.255.322-.441.546-.56s.479-.178.767-.178c.422,0,.745.115.973.345.227.23.34.604.34,1.121v3.821h-1.322v-3.554c0-.268-.045-.455-.134-.56-.09-.105-.233-.158-.431-.158-.467,0-.699.284-.699.853v3.419h-1.322v-5.153h1.265Z" fill="#fff"/>
      <path d="M89.657,146.343c.069-.338.185-.621.345-.848.159-.227.368-.398.627-.517s.576-.178.953-.178c.396-.006.725.047.986.158s.47.282.623.513c.152.229.262.514.325.853.063.338.096.734.096,1.188,0,.44-.035.83-.105,1.168-.07.339-.186.621-.345.848s-.368.395-.627.503-.576.163-.953.163c-.396.006-.725-.043-.986-.148-.263-.105-.47-.271-.623-.498s-.262-.511-.325-.853c-.064-.342-.096-.736-.096-1.183,0-.44.034-.83.105-1.169ZM90.893,148.239c.013.224.043.415.091.575.048.159.119.284.216.373.096.09.223.134.383.134.268,0,.453-.14.556-.421.102-.281.153-.744.153-1.389s-.052-1.108-.153-1.389c-.103-.281-.288-.422-.556-.422-.16,0-.287.045-.383.134-.097.09-.168.215-.216.374s-.078.352-.091.574c-.013.224-.02.467-.02.729s.007.504.02.728Z" fill="#fff"/>
      <path d="M95.691,143.249v6.839h-1.322v-6.839h1.322Z" fill="#fff"/>
      <path d="M96.554,146.343c.069-.338.185-.621.345-.848.159-.227.368-.398.627-.517s.576-.178.953-.178c.396-.006.725.047.986.158s.47.282.623.513c.152.229.262.514.325.853.063.338.096.734.096,1.188,0,.44-.035.83-.105,1.168-.07.339-.186.621-.345.848s-.368.395-.627.503-.576.163-.953.163c-.396.006-.725-.043-.986-.148-.263-.105-.47-.271-.623-.498s-.262-.511-.325-.853c-.064-.342-.096-.736-.096-1.183,0-.44.034-.83.105-1.169ZM97.789,148.239c.013.224.043.415.091.575.048.159.119.284.216.373.096.09.223.134.383.134.268,0,.453-.14.556-.421.102-.281.153-.744.153-1.389s-.052-1.108-.153-1.389c-.103-.281-.288-.422-.556-.422-.16,0-.287.045-.383.134-.097.09-.168.215-.216.374s-.078.352-.091.574c-.013.224-.02.467-.02.729s.007.504.02.728Z" fill="#fff"/>
      <path d="M105.077,149.829c0,.664-.165,1.162-.493,1.494-.329.332-.88.498-1.652.498-.562,0-.995-.119-1.298-.359-.304-.239-.455-.579-.455-1.02h1.265c0,.166.066.297.201.393.063.045.132.08.205.105s.152.038.235.038c.268,0,.456-.086.564-.259.108-.172.163-.386.163-.642v-.68h-.02c-.134.191-.298.345-.493.46-.194.114-.397.172-.607.172-.524,0-.918-.199-1.184-.599-.265-.398-.397-1.067-.397-2.007,0-.3.018-.606.053-.919s.108-.596.221-.848c.111-.252.274-.458.488-.618.214-.159.5-.239.857-.239.185,0,.376.052.574.153.198.103.361.287.488.556h.02v-.575h1.265v4.895ZM102.457,148.182c.017.16.048.302.096.427.048.124.115.224.201.297.087.073.2.11.34.11.141,0,.258-.037.35-.11.093-.073.166-.174.221-.302s.093-.283.115-.465.033-.381.033-.599c0-.626-.05-1.069-.148-1.331s-.279-.393-.541-.393c-.147,0-.266.032-.354.096-.09.063-.16.167-.211.312-.051.144-.084.335-.101.574-.016.239-.023.531-.023.876,0,.18.008.349.023.508Z" fill="#fff"/>
      <path d="M106.446,150.787c.243,0,.417-.063.522-.191s.167-.297.187-.508l-1.446-5.153h1.379l.767,3.563h.02l.67-3.563h1.322l-1.245,4.809c-.115.428-.226.774-.331,1.039s-.229.47-.373.613-.316.237-.518.282-.455.067-.762.067h-.536v-.986c.115.019.23.028.345.028Z" fill="#fff"/>
      <path d="M111.168,150.088h-1.264v-1.494h1.264v1.494Z" fill="#fff"/>
      <path d="M114.176,143.249h1.379v6.839h-1.379v-6.839Z" fill="#fff"/>
      <path d="M117.806,144.935v.604h.019c.141-.255.322-.441.546-.56s.479-.178.767-.178c.422,0,.745.115.973.345.227.23.34.604.34,1.121v3.821h-1.322v-3.554c0-.268-.045-.455-.134-.56-.09-.105-.233-.158-.431-.158-.467,0-.699.284-.699.853v3.419h-1.322v-5.153h1.265Z" fill="#fff"/>
      <path d="M122.939,143.46v1.475h.766v.9h-.766v2.787c0,.205.03.35.091.437.061.086.187.129.378.129.052,0,.103,0,.153-.005.052-.003.1-.008.144-.015v.92c-.146,0-.288.005-.426.015s-.282.014-.436.014c-.256,0-.465-.018-.628-.053-.162-.034-.287-.104-.373-.21s-.146-.244-.178-.417c-.031-.172-.048-.39-.048-.651v-2.95h-.67v-.9h.67v-1.475h1.322Z" fill="#fff"/>
      <path d="M125.295,148.124c0,.153.012.302.034.445.022.145.059.271.11.384.051.111.117.201.201.268.082.067.185.101.306.101.224,0,.387-.079.489-.239.102-.159.172-.402.21-.728h1.188c-.026.6-.186,1.057-.479,1.369-.294.313-.757.47-1.389.47-.479,0-.853-.08-1.12-.239-.269-.16-.467-.37-.595-.633-.127-.262-.205-.555-.234-.881-.028-.325-.043-.651-.043-.977,0-.345.024-.677.072-.996s.144-.604.287-.853.35-.447.617-.594c.269-.147.626-.221,1.073-.221.383,0,.697.062.943.187.246.125.438.301.579.527s.236.501.288.823c.051.323.076.682.076,1.078v.297h-2.615v.411ZM126.607,146.405c-.019-.15-.053-.277-.101-.383s-.115-.186-.201-.24c-.086-.054-.196-.081-.33-.081s-.244.03-.331.091c-.086.061-.154.141-.205.239-.052.1-.088.21-.11.331s-.034.242-.034.363v.201h1.351c-.006-.197-.019-.371-.038-.521Z" fill="#fff"/>
      <path d="M129.97,143.249v6.839h-1.322v-6.839h1.322Z" fill="#fff"/>
      <path d="M132.269,143.249v6.839h-1.322v-6.839h1.322Z" fill="#fff"/>
      <path d="M134.567,143.173v1.13h-1.322v-1.13h1.322ZM134.567,144.935v5.153h-1.322v-5.153h1.322Z" fill="#fff"/>
      <path d="M139.355,149.829c0,.664-.165,1.162-.493,1.494-.329.332-.88.498-1.652.498-.562,0-.995-.119-1.298-.359-.304-.239-.455-.579-.455-1.02h1.265c0,.166.066.297.201.393.063.045.132.08.205.105s.152.038.235.038c.268,0,.456-.086.564-.259.108-.172.163-.386.163-.642v-.68h-.02c-.134.191-.298.345-.493.46-.194.114-.397.172-.607.172-.524,0-.918-.199-1.184-.599-.265-.398-.397-1.067-.397-2.007,0-.3.018-.606.053-.919s.108-.596.221-.848c.111-.252.274-.458.488-.618.214-.159.5-.239.857-.239.185,0,.376.052.574.153.198.103.361.287.488.556h.02v-.575h1.265v4.895ZM136.735,148.182c.017.16.048.302.096.427.048.124.115.224.201.297.087.073.2.11.34.11.141,0,.258-.037.35-.11.093-.073.166-.174.221-.302s.093-.283.115-.465.033-.381.033-.599c0-.626-.05-1.069-.148-1.331s-.279-.393-.541-.393c-.147,0-.266.032-.354.096-.09.063-.16.167-.211.312-.051.144-.084.335-.101.574-.016.239-.023.531-.023.876,0,.18.008.349.023.508Z" fill="#fff"/>
      <path d="M141.414,148.124c0,.153.012.302.034.445.022.145.059.271.11.384.051.111.117.201.201.268.082.067.185.101.306.101.224,0,.387-.079.489-.239.102-.159.172-.402.21-.728h1.188c-.026.6-.186,1.057-.479,1.369-.294.313-.757.47-1.389.47-.479,0-.853-.08-1.12-.239-.269-.16-.467-.37-.595-.633-.127-.262-.205-.555-.234-.881-.028-.325-.043-.651-.043-.977,0-.345.024-.677.072-.996s.144-.604.287-.853.35-.447.617-.594c.269-.147.626-.221,1.073-.221.383,0,.697.062.943.187.246.125.438.301.579.527s.236.501.288.823c.051.323.076.682.076,1.078v.297h-2.615v.411ZM142.727,146.405c-.019-.15-.053-.277-.101-.383s-.115-.186-.201-.24c-.086-.054-.196-.081-.33-.081s-.244.03-.331.091c-.086.061-.154.141-.205.239-.052.1-.088.21-.11.331s-.034.242-.034.363v.201h1.351c-.006-.197-.019-.371-.038-.521Z" fill="#fff"/>
      <path d="M145.983,144.935v.604h.019c.141-.255.322-.441.546-.56s.479-.178.767-.178c.422,0,.745.115.973.345.227.23.34.604.34,1.121v3.821h-1.322v-3.554c0-.268-.045-.455-.134-.56-.09-.105-.233-.158-.431-.158-.467,0-.699.284-.699.853v3.419h-1.322v-5.153h1.265Z" fill="#fff"/>
      <path d="M151.965,146.42c-.017-.121-.045-.231-.086-.331-.042-.099-.101-.179-.178-.239-.076-.061-.179-.091-.307-.091-.159,0-.29.037-.393.11s-.179.182-.229.325c-.052.144-.086.326-.105.546-.02.221-.029.48-.029.781,0,.319.01.592.029.818s.054.414.105.561c.051.146.123.254.215.32.093.067.213.101.359.101.224,0,.387-.096.488-.287.103-.191.153-.498.153-.919h1.265c0,.677-.151,1.192-.455,1.547-.304.354-.806.531-1.509.531-.332,0-.621-.04-.866-.12-.246-.079-.45-.224-.613-.431s-.286-.485-.368-.833c-.084-.349-.125-.781-.125-1.298,0-.53.051-.969.153-1.317.102-.348.246-.626.431-.833.186-.208.405-.353.661-.436.255-.083.536-.125.843-.125.613,0,1.074.179,1.384.536.31.358.465.843.465,1.456h-1.265c0-.128-.008-.252-.023-.373Z" fill="#fff"/>
      <path d="M155.072,148.124c0,.153.012.302.034.445.022.145.059.271.11.384.051.111.117.201.201.268.082.067.185.101.306.101.224,0,.387-.079.489-.239.102-.159.172-.402.21-.728h1.188c-.026.6-.186,1.057-.479,1.369-.294.313-.757.47-1.389.47-.479,0-.853-.08-1.12-.239-.269-.16-.467-.37-.595-.633-.127-.262-.205-.555-.234-.881-.028-.325-.043-.651-.043-.977,0-.345.024-.677.072-.996s.144-.604.287-.853.35-.447.617-.594c.269-.147.626-.221,1.073-.221.383,0,.697.062.943.187.246.125.438.301.579.527s.236.501.288.823c.051.323.076.682.076,1.078v.297h-2.615v.411ZM156.385,146.405c-.019-.15-.053-.277-.101-.383s-.115-.186-.201-.24c-.086-.054-.196-.081-.33-.081s-.244.03-.331.091c-.086.061-.154.141-.205.239-.052.1-.088.21-.11.331s-.034.242-.034.363v.201h1.351c-.006-.197-.019-.371-.038-.521Z" fill="#fff"/>
      <path d="M159.718,150.088h-1.264v-1.494h1.264v1.494Z" fill="#fff"/>
    </g>
  </g>
  <g id="Layer_1" data-name="Layer 1">
    <g>
      <path d="M158.612,2.624H2.624v133.497h155.988V2.624h0Z" fill="none" stroke="#fff" stroke-linecap="round" stroke-linejoin="round" stroke-width="5.248"/>
      <path d="M59.001,59.951c0-5.348-2.049-9.296-6.148-11.845-3.049-1.849-6.847-2.799-11.345-2.799-3.649,0-7.097.75-10.296,2.199-2.899,1.299-4.998,2.899-6.297,4.798h-.15v-5.948h-12.945v40.734h13.395v-19.642c0-7.847,3.798-11.795,11.445-11.795,5.998,0,8.996,2.799,8.996,8.347v23.091h13.345v-27.139h0Z" fill="#666"/>
      <path d="M83.442,87.09l5.898-14.894h33.187l5.898,14.894h21.142L117.778,14.769h-23.691l-31.837,72.321h21.192ZM105.933,30.363l11.345,28.689h-22.691l11.345-28.689h0Z" fill="#fff"/>
      <path d="M24.765,112.23v8.547h4.948v-10.046c0-1.949-.75-3.399-2.299-4.348-1.15-.7-2.549-1.05-4.198-1.05-1.349,0-2.649.25-3.798.8-1.05.5-1.849,1.1-2.349,1.799h-.05v-2.199h-4.748v15.044h4.948v-7.247c0-2.899,1.399-4.348,4.198-4.348,2.249,0,3.349,1,3.349,3.049h0Z" fill="#666"/>
      <path d="M42.208,105.133c-3.149,0-5.548.65-7.197,1.949-1.849,1.349-2.749,3.399-2.749,6.148s.9,4.798,2.749,6.198c1.649,1.25,4.048,1.899,7.197,1.899,4.898,0,8.047-1.699,9.396-5.048h-5.298c-.75,1.299-2.099,1.949-4.098,1.949-1.549,0-2.749-.4-3.699-1.25-.75-.75-1.15-1.549-1.15-2.399h14.494v-.45c0-2.899-.8-5.098-2.349-6.597-1.649-1.599-4.098-2.399-7.297-2.399h0ZM45.757,109.631c.65.65,1,1.349,1,1.999h-9.396c0-.55.3-1.15.9-1.799.9-1.05,2.199-1.599,3.848-1.599,1.549,0,2.799.45,3.649,1.399h0Z" fill="#666"/>
      <path d="M99.535,105.133c-3.099,0-5.498.65-7.147,1.949-1.849,1.349-2.799,3.399-2.799,6.148s.9,4.798,2.649,6.198c1.649,1.25,3.948,1.899,6.897,1.899,2.749,0,4.898-.4,6.347-1.25,1.799-1.05,2.899-2.799,3.299-5.298h-5.098c-.15.95-.6,1.699-1.349,2.249s-1.649.85-2.799.85c-1.549,0-2.699-.4-3.549-1.2-.85-.8-1.249-1.949-1.249-3.449,0-1.449.4-2.599,1.249-3.399.85-.8,1.999-1.2,3.549-1.2,2.249,0,3.599.9,4.148,2.649h5.098c-.75-4.098-3.848-6.148-9.246-6.148h0Z" fill="#fff"/>
      <path d="M112.78,105.733h-3.149v3.299h3.149v7.597c0,1.599.25,2.699.8,3.299.75.8,2.199,1.2,4.348,1.2,1.05,0,2.299-.1,3.848-.3v-3.299c-1.05.05-1.849.1-2.399.1-.65,0-1.1-.1-1.299-.35-.25-.2-.4-.6-.4-1.2v-7.047h4.048v-3.299h-4.048v-4.698h-4.898v4.698h0Z" fill="#fff"/>
      <polygon points="128.674 105.733 123.725 105.733 123.725 120.777 128.674 120.777 128.674 105.733 128.674 105.733" fill="#fff"/>
      <polygon points="123.725 100.385 123.725 103.883 128.673 103.883 128.673 100.385 123.725 100.385 123.725 100.385" fill="#fff"/>
      <polygon points="135.621 105.733 129.973 105.733 136.92 120.777 142.518 120.777 149.415 105.733 143.817 105.733 139.719 116.278 135.621 105.733 135.621 105.733" fill="#fff"/>
      <path d="M60.901,105.733v-4.698h-4.898v4.698h-3.149v3.299h3.149v7.597c0,1.599.25,2.699.8,3.299.75.8,2.199,1.2,4.348,1.2,1.05,0,2.299-.1,3.848-.3v-.05h-.15l.15-.35v-2.899c-1.05.05-1.849.1-2.399.1-.65,0-1.1-.1-1.299-.35-.25-.2-.4-.6-.4-1.2v-7.047h4.048v-3.299h-4.048Z" fill="#666"/>
      <path d="M80.243,100.735h-6.547l-8.697,19.692-.15.35h5.898l1.599-4.148h9.246l1.599,4.148h5.898l-8.846-20.042h0ZM80.143,112.98h-6.297l3.149-7.947,3.149,7.947h0Z" fill="#fff"/>
    </g>
  </g>
</svg>