<?xml version="1.0" encoding="UTF-8"?>
<svg id="Layer_1" data-name="Layer 1" xmlns="http://www.w3.org/2000/svg" width="454.043" height="90.877" viewBox="0 0 454.043 90.877">
  <path d="M66.698,7.122h-13.195l-17.693,40.284h11.745l3.299-8.297h18.493l3.249,8.297h11.795L66.698,7.122h0ZM66.398,31.812h-12.645l6.347-15.994,6.297,15.994h0Z"/>
  <path d="M33.961,32.312c0-2.999-1.15-5.198-3.399-6.597-1.699-1.05-3.798-1.549-6.297-1.549-2.049,0-3.998.4-5.748,1.2-1.649.75-2.799,1.599-3.549,2.649h-.05v-3.299h-7.197v22.691h7.447v-10.946c0-4.348,2.099-6.547,6.347-6.547,3.349,0,4.998,1.549,4.998,4.648v12.845h7.447v-15.094h0Z" fill="#fff"/>
  <polygon points="419.807 14.919 405.863 14.919 423.006 52.254 436.9 52.254 454.043 14.919 440.099 14.919 429.953 41.109 419.807 14.919 419.807 14.919"/>
  <path d="M282.562,2.524h-16.293l-21.441,48.83-.4.9h14.544l4.048-10.246h22.791l4.048,10.246h14.594l-21.891-49.73h0ZM282.212,32.962h-15.594l7.847-19.692,7.747,19.692h0Z"/>
  <path d="M244.827,52.404v-.15h-.4l.4-.9v-7.197c-2.599.2-4.598.3-5.998.3-1.599,0-2.699-.3-3.249-.85-.6-.55-.9-1.549-.9-3.049v-17.393h9.946v-8.247h-9.946V3.374h-12.195v11.545h-7.747v8.247h7.747v18.842c0,3.898.65,6.597,1.999,8.097,1.799,1.999,5.398,2.999,10.746,2.999,2.599,0,5.798-.25,9.596-.7h0Z" fill="#fff"/>
  <path d="M363.18,14.919h-7.747v8.247h7.747v18.842c0,3.898.65,6.597,1.999,8.097,1.799,1.999,5.398,2.999,10.746,2.999,2.599,0,5.798-.25,9.596-.7v-8.247c-2.599.2-4.598.3-5.998.3-1.599,0-2.699-.3-3.249-.85-.6-.55-.9-1.549-.9-3.049v-17.393h9.946v-8.247h-9.946V3.374h-12.195v11.545h0Z"/>
  <polygon points="390.269 10.321 402.514 10.321 402.514 1.674 390.269 1.674 390.269 10.321 390.269 10.321"/>
  <polygon points="402.514 14.919 390.269 14.919 390.269 52.254 402.514 52.254 402.514 14.919 402.514 14.919"/>
  <path d="M330.443,22.166c5.498,0,8.896,2.199,10.196,6.547h12.695c-1.949-10.146-9.546-15.194-22.891-15.194-7.697,0-13.645,1.599-17.793,4.748-4.548,3.449-6.847,8.547-6.847,15.344,0,6.747,2.199,11.845,6.597,15.294,4.048,3.149,9.696,4.748,16.993,4.748,6.847,0,12.045-1.05,15.694-3.149,4.448-2.549,7.197-6.947,8.247-13.095h-12.695c-.35,2.349-1.399,4.198-3.249,5.548-1.849,1.349-4.198,2.049-6.947,2.049-3.798,0-6.747-1-8.796-2.949-2.099-1.949-3.149-4.798-3.149-8.447,0-3.699,1.05-6.547,3.149-8.497,2.049-1.949,4.998-2.949,8.796-2.949h0Z"/>
  <path d="M151.614,16.568c-2.749-1.749-6.198-2.599-10.346-2.599-3.349,0-6.497.65-9.446,1.999-2.649,1.2-4.598,2.649-5.798,4.398h-.15v-5.448h-11.795v37.335h12.245v-18.043c0-7.147,3.499-10.746,10.496-10.746,5.448,0,8.197,2.549,8.197,7.647v21.142h12.245v-24.84c0-4.948-1.899-8.547-5.648-10.846h0Z" fill="#fff"/>
  <path d="M212.19,36.86v-1.15c0-7.147-1.949-12.595-5.898-16.343-4.098-3.898-10.096-5.848-18.043-5.848-7.747,0-13.695,1.599-17.843,4.748-4.548,3.449-6.847,8.547-6.847,15.344,0,6.747,2.299,11.845,6.847,15.294,4.148,3.149,10.096,4.748,17.843,4.748,12.145,0,19.892-4.198,23.241-12.545h-13.095c-1.749,3.249-5.148,4.898-10.146,4.898-3.848,0-6.897-1.05-9.146-3.199-1.899-1.799-2.849-3.798-2.849-5.948h35.936ZM197.096,24.665c1.649,1.649,2.449,3.299,2.449,4.948h-23.291c0-1.299.75-2.799,2.249-4.548,2.249-2.599,5.398-3.898,9.446-3.898,3.898,0,6.947,1.15,9.146,3.499h0Z" fill="#fff"/>
  <path d="M2.624,2.624v50.38h86.815V2.624H2.624Z" fill="none" stroke="#fff" stroke-linecap="round" stroke-linejoin="round" stroke-width="5.248"/>
  <g id="Strategy_Text_Outlines" data-name="Strategy Text Outlines">
    <path d="M4.568,80.366c0,.456.036.873.111,1.248.073.375.21.691.411.946.201.257.47.459.81.604.337.148.763.221,1.276.221.603,0,1.147-.196,1.633-.59.484-.395.728-1.002.728-1.825,0-.439-.06-.82-.179-1.139-.119-.322-.316-.61-.59-.865-.274-.257-.635-.49-1.083-.7-.449-.213-1.002-.425-1.661-.646-.879-.291-1.638-.613-2.278-.96-.641-.347-1.177-.756-1.606-1.223-.43-.465-.746-1.005-.947-1.617s-.301-1.324-.301-2.127c0-1.939.539-3.386,1.619-4.338,1.079-.951,2.562-1.427,4.447-1.427.877,0,1.687.095,2.429.288.74.193,1.381.504,1.921.932.539.431.96.979,1.262,1.648s.453,1.469.453,2.401v.548h-3.788c0-.932-.165-1.651-.494-2.155-.33-.501-.879-.753-1.647-.753-.439,0-.806.064-1.098.19-.292.129-.526.299-.7.509s-.292.453-.357.728-.097.557-.097.851c0,.602.129,1.111.385,1.522s.805.792,1.647,1.139l3.046,1.318c.75.327,1.363.672,1.839,1.03.476.355.856.739,1.139,1.15.284.414.481.865.59,1.36.111.493.165,1.044.165,1.645,0,2.068-.6,3.574-1.798,4.517-1.199.943-2.868,1.413-5.009,1.413-2.232,0-3.828-.484-4.789-1.455-.96-.968-1.44-2.359-1.44-4.172v-.795h3.951v.576Z" fill="#fff"/>
    <path d="M20.13,66.917v4.226h2.195v2.58h-2.195v7.987c0,.588.087,1.002.26,1.251.174.246.536.369,1.084.369.146,0,.292-.003.439-.014.146-.008.283-.022.411-.042v2.636c-.421,0-.828.014-1.221.042s-.81.039-1.248.039c-.733,0-1.332-.05-1.798-.151-.467-.098-.824-.299-1.07-.602-.248-.302-.417-.7-.508-1.195-.092-.493-.137-1.117-.137-1.867v-8.454h-1.921v-2.58h1.921v-4.226h3.788Z" fill="#fff"/>
    <path d="M27.266,71.142v1.978h.055c.383-.714.851-1.287,1.399-1.715.548-.431,1.217-.646,2.004-.646.111,0,.224.006.343.014s.234.022.343.042v3.621c-.201-.017-.397-.031-.589-.039-.193-.011-.389-.014-.59-.014-.329,0-.659.045-.988.137-.33.092-.631.243-.905.453-.276.21-.495.484-.659.823-.165.339-.248.756-.248,1.248v8.865h-3.788v-14.767h3.624Z" fill="#fff"/>
    <path d="M32.755,75.315c0-.859.137-1.578.411-2.155s.645-1.041,1.111-1.399c.467-.355,1.016-.613,1.647-.77.631-.154,1.304-.232,2.018-.232,1.135,0,2.048.109,2.745.33.694.218,1.234.532,1.619.932.383.403.645.884.782,1.441.137.56.206,1.167.206,1.825v7.768c0,.697.032,1.234.097,1.62.063.383.187.795.369,1.234h-3.623c-.127-.238-.224-.49-.288-.756-.064-.263-.123-.526-.178-.781h-.055c-.439.767-.947,1.268-1.524,1.494-.576.229-1.322.344-2.237.344-.659,0-1.217-.115-1.673-.344-.458-.227-.824-.543-1.098-.946s-.476-.856-.603-1.36c-.129-.501-.193-1.002-.193-1.494,0-.694.073-1.296.22-1.797.147-.504.371-.935.673-1.29.302-.358.686-.655,1.153-.893.466-.238,1.028-.448,1.687-.632l2.141-.576c.567-.146.96-.347,1.18-.604.22-.255.33-.63.33-1.125,0-.565-.133-1.01-.399-1.329-.264-.322-.718-.481-1.359-.481-.585,0-1.024.174-1.317.521-.292.35-.439.814-.439,1.402v.411h-3.403v-.358ZM38.847,79.006c-.292.12-.558.207-.796.263-.768.162-1.317.437-1.645.823-.33.383-.495.904-.495,1.564,0,.568.111,1.052.33,1.455s.585.602,1.097.602c.256,0,.522-.039.796-.123.274-.081.526-.215.756-.397.228-.182.416-.42.562-.714.146-.291.22-.641.22-1.044v-2.908c-.256.201-.532.361-.824.479Z" fill="#fff"/>
    <path d="M50.595,66.917v4.226h2.195v2.58h-2.195v7.987c0,.588.087,1.002.26,1.251.174.246.536.369,1.084.369.146,0,.292-.003.439-.014.146-.008.283-.022.411-.042v2.636c-.421,0-.828.014-1.221.042s-.81.039-1.248.039c-.733,0-1.332-.05-1.798-.151-.467-.098-.824-.299-1.07-.602-.248-.302-.417-.7-.508-1.195-.092-.493-.137-1.117-.137-1.867v-8.454h-1.921v-2.58h1.921v-4.226h3.788Z" fill="#fff"/>
    <path d="M57.346,80.282c0,.439.032.865.097,1.276.063.414.168.778.315,1.1.147.319.339.576.576.767.238.193.53.288.879.288.639,0,1.107-.227,1.399-.686.292-.456.494-1.153.604-2.085h3.403c-.073,1.718-.53,3.028-1.373,3.923-.841.898-2.167,1.346-3.979,1.346-1.373,0-2.443-.229-3.211-.686-.768-.459-1.336-1.061-1.701-1.813-.367-.75-.59-1.589-.673-2.524-.083-.932-.123-1.867-.123-2.798,0-.988.069-1.939.206-2.854s.411-1.729.824-2.443c.411-.714,1.002-1.282,1.77-1.701.768-.423,1.792-.632,3.074-.632,1.097,0,1.998.179,2.703.534.704.358,1.258.862,1.661,1.511.402.649.676,1.436.823,2.359.147.926.22,1.953.22,3.089v.851h-7.493v1.178ZM61.106,75.357c-.055-.431-.151-.795-.288-1.097s-.329-.532-.576-.688c-.246-.154-.562-.232-.946-.232s-.701.087-.947.26c-.248.174-.444.403-.59.686-.147.285-.252.602-.315.949-.064.347-.097.694-.097,1.041v.576h3.87c-.018-.565-.056-1.063-.111-1.494Z" fill="#fff"/>
    <path d="M77.875,85.168c0,1.903-.47,3.33-1.413,4.282s-2.52,1.427-4.735,1.427c-1.609,0-2.849-.341-3.718-1.03-.87-.686-1.304-1.659-1.304-2.922h3.623c0,.476.192.851.576,1.125.183.129.379.229.59.302.21.073.434.109.672.109.77,0,1.308-.246,1.62-.742.311-.493.466-1.105.466-1.839v-1.948h-.055c-.385.548-.856.988-1.413,1.318-.558.327-1.139.493-1.743.493-1.5,0-2.63-.571-3.389-1.715-.76-1.142-1.139-3.059-1.139-5.751,0-.859.049-1.738.15-2.633s.312-1.707.632-2.429c.319-.722.786-1.312,1.399-1.771.613-.456,1.431-.686,2.457-.686.53,0,1.079.148,1.645.439.568.294,1.034.823,1.401,1.592h.055v-1.648h3.623v14.026ZM70.37,80.447c.045.459.137.865.274,1.223.137.355.329.641.576.851.246.21.571.316.974.316s.736-.106,1.002-.316c.264-.21.476-.498.631-.865s.264-.812.329-1.332.097-1.091.097-1.715c0-1.794-.141-3.064-.425-3.814s-.8-1.125-1.55-1.125c-.421,0-.76.092-1.016.274s-.458.479-.604.893c-.146.411-.242.96-.287,1.645-.046.686-.07,1.522-.07,2.51,0,.515.024.999.07,1.455Z" fill="#fff"/>
    <path d="M81.798,87.913c.695,0,1.195-.182,1.497-.548.301-.367.48-.851.534-1.455l-4.144-14.767h3.953l2.195,10.211h.055l1.921-10.211h3.788l-3.568,13.779c-.329,1.226-.645,2.219-.947,2.977-.301.758-.658,1.346-1.07,1.757-.411.411-.905.68-1.482.809s-1.304.193-2.181.193h-1.538v-2.826c.33.053.659.081.988.081Z" fill="#fff"/>
    <path d="M95.33,85.909h-3.623v-4.282h3.623v4.282Z" fill="#fff"/>
    <path d="M110.425,66.312c1.373,0,2.479.224,3.322.674.841.448,1.496,1.089,1.962,1.92.467.834.782,1.836.947,3.005.165,1.173.248,2.479.248,3.926,0,1.718-.106,3.215-.316,4.486-.21,1.273-.572,2.32-1.084,3.143s-1.198,1.436-2.058,1.839-1.949.604-3.266.604h-6.231v-19.597h6.477ZM109.656,82.999c.695,0,1.254-.118,1.675-.355.42-.238.754-.632,1.002-1.181.246-.548.411-1.27.494-2.169.083-.895.123-2.012.123-3.347,0-1.117-.036-2.096-.111-2.938-.073-.84-.224-1.539-.452-2.099-.229-.557-.568-.979-1.016-1.262-.449-.283-1.048-.425-1.798-.425h-1.673v13.776h1.756Z" fill="#fff"/>
    <path d="M122.638,80.282c0,.439.032.865.097,1.276.063.414.168.778.315,1.1.147.319.339.576.576.767.238.193.53.288.879.288.639,0,1.107-.227,1.399-.686.292-.456.494-1.153.604-2.085h3.403c-.073,1.718-.53,3.028-1.373,3.923-.841.898-2.167,1.346-3.979,1.346-1.373,0-2.443-.229-3.211-.686-.768-.459-1.336-1.061-1.701-1.813-.367-.75-.59-1.589-.673-2.524-.083-.932-.123-1.867-.123-2.798,0-.988.069-1.939.206-2.854s.411-1.729.824-2.443c.411-.714,1.002-1.282,1.77-1.701.768-.423,1.792-.632,3.074-.632,1.097,0,1.998.179,2.703.534.704.358,1.258.862,1.661,1.511.402.649.676,1.436.823,2.359.147.926.22,1.953.22,3.089v.851h-7.493v1.178ZM126.398,75.357c-.055-.431-.151-.795-.288-1.097s-.329-.532-.576-.688c-.246-.154-.562-.232-.946-.232s-.701.087-.947.26c-.248.174-.444.403-.59.686-.147.285-.252.602-.315.949-.064.347-.097.694-.097,1.041v.576h3.87c-.018-.565-.056-1.063-.111-1.494Z" fill="#fff"/>
    <path d="M134.878,81.572c0,.641.169,1.159.508,1.553.339.392.828.588,1.469.588.585,0,1.052-.146,1.399-.439.347-.291.522-.73.522-1.315,0-.476-.137-.837-.411-1.086-.276-.246-.595-.442-.961-.59l-2.663-.96c-1.042-.367-1.829-.881-2.36-1.55-.53-.669-.795-1.522-.795-2.566,0-.604.099-1.175.301-1.715s.522-1.01.961-1.413,1.002-.722,1.687-.96c.687-.238,1.514-.358,2.484-.358,1.721,0,2.993.367,3.816,1.097.823.733,1.235,1.769,1.235,3.103v.602h-3.404c0-.767-.123-1.329-.369-1.687-.248-.355-.683-.534-1.304-.534-.476,0-.893.134-1.249.397-.357.266-.534.663-.534,1.195,0,.367.113.694.343.988.228.294.663.54,1.304.742l2.278.767c1.189.403,2.03.929,2.524,1.578.495.652.742,1.534.742,2.65,0,.786-.137,1.469-.411,2.043-.274.576-.655,1.058-1.139,1.441-.486.386-1.062.66-1.729.826-.667.162-1.405.246-2.209.246-1.062,0-1.945-.101-2.649-.302s-1.262-.504-1.673-.907c-.413-.4-.701-.89-.865-1.466-.165-.576-.248-1.223-.248-1.936v-.521h3.403v.493Z" fill="#fff"/>
    <path d="M148.217,66.094v3.238h-3.788v-3.238h3.788ZM148.217,71.142v14.767h-3.788v-14.767h3.788Z" fill="#fff"/>
    <path d="M161.94,85.168c0,1.903-.47,3.33-1.413,4.282s-2.52,1.427-4.735,1.427c-1.609,0-2.849-.341-3.718-1.03-.87-.686-1.304-1.659-1.304-2.922h3.623c0,.476.192.851.576,1.125.183.129.379.229.59.302.21.073.434.109.672.109.77,0,1.308-.246,1.62-.742.311-.493.466-1.105.466-1.839v-1.948h-.055c-.385.548-.856.988-1.413,1.318-.558.327-1.139.493-1.743.493-1.5,0-2.63-.571-3.389-1.715-.76-1.142-1.139-3.059-1.139-5.751,0-.859.049-1.738.15-2.633s.312-1.707.632-2.429c.319-.722.786-1.312,1.399-1.771.613-.456,1.431-.686,2.457-.686.53,0,1.079.148,1.645.439.568.294,1.034.823,1.401,1.592h.055v-1.648h3.623v14.026ZM154.435,80.447c.045.459.137.865.274,1.223.137.355.329.641.576.851.246.21.571.316.974.316s.736-.106,1.002-.316c.264-.21.476-.498.631-.865s.264-.812.329-1.332.097-1.091.097-1.715c0-1.794-.141-3.064-.425-3.814s-.8-1.125-1.55-1.125c-.421,0-.76.092-1.016.274s-.458.479-.604.893c-.146.411-.242.96-.287,1.645-.046.686-.07,1.522-.07,2.51,0,.515.024.999.07,1.455Z" fill="#fff"/>
    <path d="M168.225,71.142v1.729h.055c.402-.73.923-1.265,1.564-1.603.639-.339,1.373-.509,2.195-.509,1.208,0,2.137.33,2.786.988.649.66.974,1.729.974,3.213v10.95h-3.788v-10.183c0-.767-.127-1.304-.383-1.603-.256-.302-.669-.453-1.235-.453-1.336,0-2.004.814-2.004,2.443v9.797h-3.788v-14.767h3.624Z" fill="#fff"/>
    <path d="M182.167,85.909h-3.623v-4.282h3.623v4.282Z" fill="#fff"/>
    <path d="M201.05,69.553h-4.282v16.357h-3.953v-16.357h-4.282v-3.241h12.516v3.241Z" fill="#fff"/>
    <path d="M203.85,80.282c0,.439.032.865.097,1.276.063.414.168.778.315,1.1.147.319.339.576.576.767.238.193.53.288.879.288.639,0,1.107-.227,1.399-.686.292-.456.494-1.153.604-2.085h3.403c-.073,1.718-.53,3.028-1.373,3.923-.841.898-2.167,1.346-3.979,1.346-1.373,0-2.443-.229-3.211-.686-.768-.459-1.336-1.061-1.701-1.813-.367-.75-.59-1.589-.673-2.524-.083-.932-.123-1.867-.123-2.798,0-.988.069-1.939.206-2.854s.411-1.729.824-2.443c.411-.714,1.002-1.282,1.77-1.701.768-.423,1.792-.632,3.074-.632,1.097,0,1.998.179,2.703.534.704.358,1.258.862,1.661,1.511.402.649.676,1.436.823,2.359.147.926.22,1.953.22,3.089v.851h-7.493v1.178ZM207.61,75.357c-.055-.431-.151-.795-.288-1.097s-.329-.532-.576-.688c-.246-.154-.562-.232-.946-.232s-.701.087-.947.26c-.248.174-.444.403-.59.686-.147.285-.252.602-.315.949-.064.347-.097.694-.097,1.041v.576h3.87c-.018-.565-.056-1.063-.111-1.494Z" fill="#fff"/>
    <path d="M220.359,75.399c-.046-.347-.129-.663-.248-.949-.119-.283-.288-.512-.508-.686s-.512-.26-.877-.26c-.458,0-.834.106-1.126.316s-.512.521-.658.932c-.147.411-.248.935-.302,1.564-.055.632-.083,1.377-.083,2.239,0,.915.028,1.696.083,2.345s.155,1.187.302,1.606c.146.42.351.728.617.918.264.193.609.288,1.028.288.641,0,1.108-.274,1.401-.823s.439-1.427.439-2.633h3.623c0,1.939-.435,3.417-1.304,4.433-.869,1.013-2.31,1.522-4.322,1.522-.951,0-1.78-.115-2.484-.344-.705-.227-1.29-.641-1.757-1.234-.466-.593-.819-1.391-1.056-2.387-.238-.999-.357-2.239-.357-3.719,0-1.52.147-2.776.439-3.775.292-.996.704-1.794,1.235-2.387.53-.596,1.161-1.01,1.893-1.248s1.536-.358,2.415-.358c1.757,0,3.078.512,3.967,1.536.887,1.027,1.331,2.415,1.331,4.172h-3.623c0-.367-.024-.722-.069-1.069Z" fill="#fff"/>
    <path d="M229.814,66.312v6.341h.053c.733-1.262,1.931-1.895,3.599-1.895,1.209,0,2.132.33,2.787.988.649.66.974,1.729.974,3.213v10.95h-3.789v-10.183c0-.767-.129-1.304-.386-1.603-.257-.302-.666-.453-1.231-.453-1.338,0-2.006.814-2.006,2.443v9.797h-3.788v-19.597h3.788Z" fill="#fff"/>
    <path d="M243.372,71.142v1.729h.053c.403-.73.923-1.265,1.564-1.603s1.374-.509,2.197-.509c1.209,0,2.135.33,2.787.988.649.66.974,1.729.974,3.213v10.95h-3.789v-10.183c0-.767-.129-1.304-.383-1.603-.257-.302-.669-.453-1.234-.453-1.338,0-2.004.814-2.004,2.443v9.797h-3.789v-14.767h3.624Z" fill="#fff"/>
    <path d="M253.281,75.178c.199-.968.529-1.78.988-2.429.456-.649,1.055-1.142,1.797-1.48s1.651-.509,2.731-.509c1.133-.017,2.076.134,2.826.453s1.346.809,1.785,1.469c.437.658.75,1.472.932,2.443.182.968.274,2.104.274,3.403,0,1.262-.101,2.379-.302,3.347-.201.971-.532,1.78-.988,2.429s-1.055,1.131-1.797,1.441-1.651.467-2.731.467c-1.136.017-2.076-.123-2.826-.425-.753-.302-1.346-.778-1.785-1.427s-.75-1.464-.932-2.443c-.185-.979-.274-2.11-.274-3.389,0-1.262.098-2.379.302-3.35ZM256.821,80.612c.036.641.123,1.189.26,1.648.137.456.341.814.618,1.069.274.257.638.383,1.097.383.767,0,1.298-.4,1.592-1.206.291-.806.439-2.132.439-3.979s-.148-3.176-.439-3.979c-.294-.806-.826-1.209-1.592-1.209-.459,0-.823.129-1.097.383-.277.257-.481.616-.618,1.072s-.224,1.007-.26,1.645c-.036.641-.056,1.338-.056,2.088s.02,1.444.056,2.085Z" fill="#fff"/>
    <path d="M270.572,66.312v19.597h-3.789v-19.597h3.789Z" fill="#fff"/>
    <path d="M273.043,75.178c.199-.968.529-1.78.988-2.429.456-.649,1.055-1.142,1.797-1.48s1.651-.509,2.731-.509c1.133-.017,2.076.134,2.826.453s1.346.809,1.785,1.469c.437.658.75,1.472.932,2.443.182.968.274,2.104.274,3.403,0,1.262-.101,2.379-.302,3.347-.201.971-.532,1.78-.988,2.429s-1.055,1.131-1.797,1.441-1.651.467-2.731.467c-1.136.017-2.076-.123-2.826-.425-.753-.302-1.346-.778-1.785-1.427s-.75-1.464-.932-2.443c-.185-.979-.274-2.11-.274-3.389,0-1.262.098-2.379.302-3.35ZM276.583,80.612c.036.641.123,1.189.26,1.648.137.456.341.814.618,1.069.274.257.638.383,1.097.383.767,0,1.298-.4,1.592-1.206.291-.806.439-2.132.439-3.979s-.148-3.176-.439-3.979c-.294-.806-.826-1.209-1.592-1.209-.459,0-.823.129-1.097.383-.277.257-.481.616-.618,1.072s-.224,1.007-.26,1.645c-.036.641-.056,1.338-.056,2.088s.02,1.444.056,2.085Z" fill="#fff"/>
    <path d="M297.468,85.168c0,1.903-.473,3.33-1.413,4.282-.943.951-2.521,1.427-4.735,1.427-1.612,0-2.852-.341-3.719-1.03-.87-.686-1.304-1.659-1.304-2.922h3.624c0,.476.19.851.576,1.125.182.129.378.229.588.302s.437.109.674.109c.767,0,1.307-.246,1.617-.742.311-.493.467-1.105.467-1.839v-1.948h-.056c-.383.548-.854.988-1.413,1.318-.557.327-1.139.493-1.741.493-1.503,0-2.63-.571-3.392-1.715-.758-1.142-1.139-3.059-1.139-5.751,0-.859.05-1.738.151-2.633s.311-1.707.632-2.429c.319-.722.786-1.312,1.399-1.771.613-.456,1.433-.686,2.457-.686.529,0,1.077.148,1.645.439.568.294,1.035.823,1.399,1.592h.056v-1.648h3.624v14.026ZM289.96,80.447c.048.459.137.865.274,1.223.137.355.33.641.576.851.249.21.574.316.974.316.403,0,.739-.106,1.002-.316.266-.21.476-.498.632-.865s.266-.812.33-1.332.095-1.091.095-1.715c0-1.794-.143-3.064-.425-3.814s-.8-1.125-1.55-1.125c-.423,0-.761.092-1.016.274-.257.182-.459.479-.604.893-.146.411-.241.96-.288,1.645-.045.686-.067,1.522-.067,2.51,0,.515.022.999.067,1.455Z" fill="#fff"/>
    <path d="M301.391,87.913c.697,0,1.195-.182,1.497-.548s.479-.851.534-1.455l-4.144-14.767h3.951l2.197,10.211h.056l1.92-10.211h3.789l-3.568,13.779c-.33,1.226-.646,2.219-.949,2.977s-.658,1.346-1.069,1.757-.907.68-1.483.809-1.304.193-2.183.193h-1.536v-2.826c.33.053.66.081.988.081Z" fill="#fff"/>
    <path d="M314.921,85.909h-3.621v-4.282h3.621v4.282Z" fill="#fff"/>
    <path d="M323.54,66.312h3.951v19.597h-3.951v-19.597Z" fill="#fff"/>
    <path d="M333.942,71.142v1.729h.053c.403-.73.923-1.265,1.564-1.603s1.374-.509,2.197-.509c1.209,0,2.135.33,2.787.988.649.66.974,1.729.974,3.213v10.95h-3.789v-10.183c0-.767-.129-1.304-.383-1.603-.257-.302-.669-.453-1.234-.453-1.338,0-2.004.814-2.004,2.443v9.797h-3.789v-14.767h3.624Z" fill="#fff"/>
    <path d="M348.653,66.917v4.226h2.194v2.58h-2.194v7.987c0,.588.087,1.002.26,1.251.174.246.534.369,1.083.369.148,0,.294-.003.439-.014.148-.008.285-.022.411-.042v2.636c-.42,0-.826.014-1.22.042s-.809.039-1.248.039c-.733,0-1.332-.05-1.799-.151-.465-.098-.823-.299-1.069-.602s-.417-.7-.509-1.195c-.09-.493-.137-1.117-.137-1.867v-8.454h-1.92v-2.58h1.92v-4.226h3.789Z" fill="#fff"/>
    <path d="M355.403,80.282c0,.439.034.865.098,1.276.064.414.168.778.316,1.1.146.319.336.576.576.767.235.193.529.288.876.288.641,0,1.108-.227,1.402-.686.291-.456.493-1.153.602-2.085h3.406c-.076,1.718-.532,3.028-1.374,3.923-.842.898-2.169,1.346-3.979,1.346-1.371,0-2.443-.229-3.21-.686-.77-.459-1.338-1.061-1.704-1.813-.364-.75-.588-1.589-.672-2.524-.081-.932-.123-1.867-.123-2.798,0-.988.07-1.939.207-2.854s.411-1.729.823-2.443,1.002-1.282,1.769-1.701c.77-.423,1.794-.632,3.075-.632,1.097,0,1.998.179,2.703.534.705.358,1.256.862,1.659,1.511s.677,1.436.826,2.359c.146.926.218,1.953.218,3.089v.851h-7.494v1.178ZM359.164,75.357c-.053-.431-.151-.795-.288-1.097s-.33-.532-.576-.688c-.246-.154-.562-.232-.946-.232s-.7.087-.949.26c-.246.174-.442.403-.588.686-.148.285-.252.602-.316.949s-.098.694-.098,1.041v.576h3.87c-.017-.565-.053-1.063-.109-1.494Z" fill="#fff"/>
    <path d="M368.799,66.312v19.597h-3.789v-19.597h3.789Z" fill="#fff"/>
    <path d="M375.386,66.312v19.597h-3.789v-19.597h3.789Z" fill="#fff"/>
    <path d="M381.973,66.094v3.238h-3.789v-3.238h3.789ZM381.973,71.142v14.767h-3.789v-14.767h3.789Z" fill="#fff"/>
    <path d="M395.694,85.168c0,1.903-.473,3.33-1.413,4.282-.943.951-2.521,1.427-4.735,1.427-1.612,0-2.852-.341-3.719-1.03-.87-.686-1.304-1.659-1.304-2.922h3.624c0,.476.19.851.576,1.125.182.129.378.229.588.302s.437.109.674.109c.767,0,1.307-.246,1.617-.742.311-.493.467-1.105.467-1.839v-1.948h-.056c-.383.548-.854.988-1.413,1.318-.557.327-1.139.493-1.741.493-1.503,0-2.63-.571-3.392-1.715-.758-1.142-1.139-3.059-1.139-5.751,0-.859.05-1.738.151-2.633s.311-1.707.632-2.429c.319-.722.786-1.312,1.399-1.771.613-.456,1.433-.686,2.457-.686.529,0,1.077.148,1.645.439.568.294,1.035.823,1.399,1.592h.056v-1.648h3.624v14.026ZM388.186,80.447c.048.459.137.865.274,1.223.137.355.33.641.576.851.249.21.574.316.974.316.403,0,.739-.106,1.002-.316.266-.21.476-.498.632-.865s.266-.812.33-1.332.095-1.091.095-1.715c0-1.794-.143-3.064-.425-3.814s-.8-1.125-1.55-1.125c-.423,0-.761.092-1.016.274-.257.182-.459.479-.604.893-.146.411-.241.96-.288,1.645-.045.686-.067,1.522-.067,2.51,0,.515.022.999.067,1.455Z" fill="#fff"/>
    <path d="M401.593,80.282c0,.439.034.865.098,1.276.064.414.168.778.316,1.1.146.319.336.576.576.767.235.193.529.288.876.288.641,0,1.108-.227,1.402-.686.291-.456.493-1.153.602-2.085h3.406c-.076,1.718-.532,3.028-1.374,3.923-.842.898-2.169,1.346-3.979,1.346-1.371,0-2.443-.229-3.21-.686-.77-.459-1.338-1.061-1.704-1.813-.364-.75-.588-1.589-.672-2.524-.081-.932-.123-1.867-.123-2.798,0-.988.07-1.939.207-2.854s.411-1.729.823-2.443,1.002-1.282,1.769-1.701c.77-.423,1.794-.632,3.075-.632,1.097,0,1.998.179,2.703.534.705.358,1.256.862,1.659,1.511s.677,1.436.826,2.359c.146.926.218,1.953.218,3.089v.851h-7.494v1.178ZM405.354,75.357c-.053-.431-.151-.795-.288-1.097s-.33-.532-.576-.688c-.246-.154-.562-.232-.946-.232s-.7.087-.949.26c-.246.174-.442.403-.588.686-.148.285-.252.602-.316.949s-.098.694-.098,1.041v.576h3.87c-.017-.565-.053-1.063-.109-1.494Z" fill="#fff"/>
    <path d="M414.687,71.142v1.729h.053c.403-.73.923-1.265,1.564-1.603s1.374-.509,2.197-.509c1.209,0,2.135.33,2.787.988.649.66.974,1.729.974,3.213v10.95h-3.789v-10.183c0-.767-.129-1.304-.383-1.603-.257-.302-.669-.453-1.234-.453-1.338,0-2.004.814-2.004,2.443v9.797h-3.789v-14.767h3.624Z" fill="#fff"/>
    <path d="M431.827,75.399c-.048-.347-.129-.663-.246-.949-.12-.283-.288-.512-.509-.686-.218-.174-.512-.26-.879-.26-.456,0-.831.106-1.125.316s-.512.521-.658.932c-.148.411-.246.935-.302,1.564-.056.632-.084,1.377-.084,2.239,0,.915.028,1.696.084,2.345s.154,1.187.302,1.606c.146.42.353.728.616.918.266.193.61.288,1.03.288.641,0,1.108-.274,1.399-.823.294-.548.439-1.427.439-2.633h3.624c0,1.939-.434,3.417-1.304,4.433-.87,1.013-2.309,1.522-4.324,1.522-.951,0-1.78-.115-2.482-.344-.705-.227-1.29-.641-1.757-1.234s-.82-1.391-1.055-2.387c-.241-.999-.358-2.239-.358-3.719,0-1.52.146-2.776.439-3.775.291-.996.705-1.794,1.234-2.387.532-.596,1.161-1.01,1.895-1.248.73-.238,1.536-.358,2.415-.358,1.757,0,3.078.512,3.965,1.536.887,1.027,1.332,2.415,1.332,4.172h-3.624c0-.367-.022-.722-.067-1.069Z" fill="#fff"/>
    <path d="M440.731,80.282c0,.439.034.865.098,1.276.064.414.168.778.316,1.1.146.319.336.576.576.767.235.193.529.288.876.288.641,0,1.108-.227,1.402-.686.291-.456.493-1.153.602-2.085h3.406c-.076,1.718-.532,3.028-1.374,3.923-.842.898-2.169,1.346-3.979,1.346-1.371,0-2.443-.229-3.21-.686-.77-.459-1.338-1.061-1.704-1.813-.364-.75-.588-1.589-.672-2.524-.081-.932-.123-1.867-.123-2.798,0-.988.07-1.939.207-2.854s.411-1.729.823-2.443,1.002-1.282,1.769-1.701c.77-.423,1.794-.632,3.075-.632,1.097,0,1.998.179,2.703.534.705.358,1.256.862,1.659,1.511s.677,1.436.826,2.359c.146.926.218,1.953.218,3.089v.851h-7.494v1.178ZM444.492,75.357c-.053-.431-.151-.795-.288-1.097s-.33-.532-.576-.688c-.246-.154-.562-.232-.946-.232s-.7.087-.949.26c-.246.174-.442.403-.588.686-.148.285-.252.602-.316.949s-.098.694-.098,1.041v.576h3.87c-.017-.565-.053-1.063-.109-1.494Z" fill="#fff"/>
    <path d="M454.043,85.909h-3.621v-4.282h3.621v4.282Z" fill="#fff"/>
  </g>
</svg>